<svg width="24" height="24" viewBox="0 0 24 24" fill="none" xmlns="http://www.w3.org/2000/svg">
  <path
    d="M13.5941 11.143C13.8684 11.4459 14.1198 11.8459 14.0112 11.9545C13.9084 12.0573 13.5827 11.8688 13.337 11.623C13.0912 11.3773 12.497 14.0059 12.4398 14.1373C12.3941 14.2402 11.7084 15.023 11.3484 15.7716C11.2284 16.023 11.2455 16.7773 11.1998 16.823C11.017 17.0059 10.7884 16.983 10.297 16.5488C9.79981 16.1088 9.54266 18.7202 10.137 19.1316C11.1484 19.8345 13.1655 22.6345 15.8341 22.6345C18.9198 22.6345 21.777 19.4173 21.777 17.0516C21.777 14.6859 21.0855 13.7945 21.1312 11.8116C21.1712 10.1373 22.3884 9.33733 22.3884 8.49733C22.3884 7.79448 21.3427 7.62305 20.9998 7.62305C20.3884 7.62305 18.8284 8.4059 18.8284 10.463C18.8284 11.263 18.5998 11.9888 17.7827 11.9888C16.9655 11.9888 16.0512 10.863 15.497 9.98876"
    fill="url(#paint0_linear)" />
  <path
    d="M22.3829 8.4974C22.3829 8.11454 22.0743 7.89168 21.7372 7.76025C22.1429 9.10311 19.5143 9.16025 19.5143 13.7431C19.5143 18.326 17.4171 19.6574 16.3143 19.886C15.2114 20.1145 13.2629 20.1831 11.7829 18.3603C11.3257 17.8003 10.7086 17.1945 10.0229 16.6231C9.73143 17.1088 9.66858 18.8003 10.1371 19.126C11.1486 19.8288 13.1657 22.6288 15.8343 22.6288C18.92 22.6288 21.7772 19.4117 21.7772 17.046C21.7772 14.6803 21.0857 13.7888 21.1314 11.806C21.1657 10.1317 22.3829 9.33168 22.3829 8.4974Z"
    fill="url(#paint1_linear)" />
  <path
    d="M10.2971 16.5426C9.79995 16.1026 8.62852 14.8569 7.86852 14.2455C7.10852 13.6341 6.43994 13.6455 5.9828 14.3141C5.52566 14.9826 6.85709 16.1655 7.16566 16.4741C7.63423 16.9426 9.54852 18.7084 10.1371 19.1198"
    fill="url(#paint2_linear)" />
  <path
    d="M12.4399 14.1315C12.3828 14.2629 11.9942 14.3544 11.2228 13.5144C10.6342 12.8744 9.05134 11.0229 8.11991 10.1886C7.18848 9.34864 6.46277 9.00578 5.85134 9.44578C5.23991 9.88578 5.58848 10.7944 6.26848 11.5601C7.11419 12.5029 8.07991 13.4629 9.01134 14.3886C9.73705 15.1086 11.3828 16.6344 11.1999 16.8172"
    fill="url(#paint3_linear)" />
  <path
    d="M9.01149 14.3886C9.6972 15.0686 11.2001 16.4686 11.2172 16.7715C11.4343 16.4343 11.0401 15.4286 10.6172 15.0743C8.20006 13.0343 5.8572 9.74862 5.56006 9.85148C5.43434 10.3315 5.75434 10.9829 6.26863 11.5601C7.11434 12.5029 8.08577 13.4686 9.01149 14.3886Z"
    fill="url(#paint4_linear)" />
  <path
    d="M15.4914 9.98264C14.9371 9.10835 12.6743 6.2855 12.12 5.4855C11.5657 4.6855 10.8228 4.6855 10.3086 5.0455C9.79427 5.4055 9.63999 6.13121 10.8 7.66835C11.5314 8.63978 12.1371 9.53121 13.5943 11.1369L15.2914 11.0169L15.4914 9.98264Z"
    fill="url(#paint5_linear)" />
  <path
    d="M13.337 11.6176C13.0913 11.3718 10.897 8.77184 10.4056 8.21755C9.47986 7.17755 8.30272 4.94327 6.89701 5.93756C6.15986 6.46327 6.55986 7.21755 6.77129 7.52613C6.98272 7.8347 9.70272 10.9718 9.97129 11.2404C10.2399 11.509 12.5027 14.0004 12.4456 14.1376"
    fill="url(#paint6_linear)" />
  <path
    d="M13.5943 11.1433C13.8571 11.4347 14.0971 11.8176 14.0228 11.9376C14.9086 11.229 13.04 9.13758 11.9771 7.88615C11.16 6.91472 10.9371 5.68044 10.3486 5.01758C10.3371 5.02901 10.32 5.03472 10.3086 5.04615C9.79427 5.40615 9.63999 6.13186 10.8 7.66901C11.5314 8.64043 12.1371 9.53758 13.5943 11.1433Z"
    fill="url(#paint7_linear)" />
  <path
    d="M9.96572 11.2399C10.2343 11.5084 12.4971 13.9999 12.44 14.137C13.1429 13.1941 10.4286 10.4227 9.11429 9.02272C7.97715 7.81129 7.77715 6.74272 6.66857 6.14844C6.25715 6.64558 6.58286 7.26272 6.76572 7.52558C6.97715 7.82844 9.69714 10.9713 9.96572 11.2399Z"
    fill="url(#paint8_linear)" />
  <path
    d="M12.3944 14.1886C12.3144 14.24 12.1544 14.24 11.8972 14.0972C12.0858 14.2457 12.2572 14.3086 12.3944 14.1886Z"
    fill="url(#paint9_linear)" />
  <path
    d="M7.50286 19.1884C7.48572 19.1884 7.46858 19.1884 7.45143 19.1826C5.71429 18.6512 3.82858 16.7541 3.41715 15.1141C3.39429 15.0226 3.45144 14.9312 3.54286 14.9084C3.63429 14.8855 3.72572 14.9426 3.74858 15.0341C4.12572 16.5426 5.93715 18.3655 7.54858 18.8569C7.64001 18.8855 7.69143 18.9826 7.66286 19.0684C7.64001 19.1426 7.57143 19.1884 7.50286 19.1884Z"
    fill="#975500" />
  <path
    d="M8.33141 21.349C8.31998 21.349 8.30283 21.349 8.29141 21.3433C6.8514 21.0062 5.18283 19.9319 3.70283 18.3947C2.31997 16.9547 1.42855 15.4233 1.3714 14.4005C1.36569 14.3033 1.43997 14.2233 1.5314 14.2176C1.62283 14.2119 1.70855 14.2862 1.71426 14.3776C1.76569 15.309 2.64569 16.7947 3.94855 18.1547C5.37712 19.6462 6.98855 20.6862 8.36569 21.0062C8.45712 21.029 8.51426 21.1205 8.49141 21.2119C8.47426 21.2919 8.40569 21.349 8.33141 21.349Z"
    fill="#975500" />
  <path
    d="M15.6971 6.34277C15.6228 6.34277 15.5542 6.29134 15.5314 6.21706C15.2914 5.30277 14.1942 3.98849 13.1942 3.73134C13.1028 3.70849 13.0457 3.61134 13.0685 3.51991C13.0914 3.42849 13.1885 3.37134 13.2799 3.3942C14.4057 3.68563 15.5885 5.10277 15.8571 6.12563C15.8799 6.21706 15.8285 6.30849 15.7371 6.33706C15.7314 6.34277 15.7142 6.34277 15.6971 6.34277Z"
    fill="#975500" />
  <path
    d="M17.8627 6.64589C17.7884 6.64589 17.7141 6.59446 17.697 6.51446C17.0513 3.98875 14.6513 2.01732 13.2799 1.77161C13.1884 1.75446 13.1256 1.66303 13.1427 1.57161C13.1599 1.48018 13.2513 1.41732 13.3427 1.43446C14.8399 1.70303 17.3427 3.73732 18.0284 6.43446C18.0513 6.52589 17.9941 6.61732 17.9027 6.64018C17.8913 6.64589 17.8741 6.64589 17.8627 6.64589Z"
    fill="#975500" />
  <path
    d="M21.16 7.9029C21.7429 7.80004 21.8458 7.8629 21.7429 7.76004C21.4572 7.65147 21.1543 7.61719 21 7.61719C20.3886 7.61719 18.8286 8.40004 18.8286 10.4572C18.8286 11.2572 18.6 11.9829 17.7829 11.9829C17.4572 11.9829 17.12 11.8058 16.8 11.5429C18.24 13.1372 19.3658 11.6343 19.5372 10.6058C19.7086 9.57719 19.4515 8.21147 21.16 7.9029Z"
    fill="url(#paint10_radial)" />
  <path
    d="M10.1314 5.20605C9.77707 5.60605 9.7885 6.33177 10.7999 7.67463C11.5314 8.64606 12.1371 9.53749 13.5942 11.1489C13.8685 11.4518 14.1199 11.8518 14.0113 11.9603C14.2571 10.2918 11.8856 8.65749 11.1142 7.40034C10.5028 6.39463 10.3828 5.80606 10.1314 5.20605Z"
    fill="url(#paint11_linear)" />
  <path
    d="M9.96558 11.2405C10.2341 11.5091 12.497 14.0005 12.4399 14.1377C12.9427 13.7834 12.5999 13.2234 11.8284 12.4519C10.2456 10.8691 8.03986 8.73766 7.15415 6.98338C7.06843 6.81766 6.91415 6.69766 6.73129 6.66909C6.25129 6.60623 6.60558 7.29195 6.76558 7.52052C6.97701 7.82909 9.69701 10.9719 9.96558 11.2405Z"
    fill="url(#paint12_linear)" />
  <path
    d="M6.26856 11.5601C7.11428 12.503 8.07999 13.463 9.01142 14.3887C9.73713 15.1087 11.3828 16.6344 11.2 16.8173C12.2171 15.9601 7.4857 12.8573 5.55999 9.85156C5.43428 10.3316 5.75999 10.9887 6.26856 11.5601Z"
    fill="url(#paint13_linear)" />
  <path
    d="M10.9944 16.989C11.0915 16.949 11.143 16.9033 11.1601 16.8576C10.983 16.9947 10.7544 16.9433 10.303 16.5433C9.80582 16.1033 8.6344 14.8576 7.8744 14.2462C7.53726 13.9776 7.22297 13.829 6.93726 13.8062C7.34868 14.0633 7.16011 14.1604 8.0744 14.8633C8.56583 15.2404 10.3658 17.2404 10.9944 16.989Z"
    fill="url(#paint14_linear)" />
  <path
    d="M9.79428 12.4172C10.4629 13.2287 11.7657 14.5772 12.3543 14.2058C12.1943 14.2629 11.8229 14.1715 11.2229 13.5201C10.6343 12.8801 9.05143 11.0287 8.12 10.1944C7.36571 9.51437 6.74857 9.16008 6.21143 9.28579C7.76 9.78865 9.16 11.6515 9.79428 12.4172Z"
    fill="url(#paint15_linear)" />
  <path
    d="M10.5199 8.91438C11.5885 10.0744 13.1713 12.3772 13.9771 11.9772C13.8456 12.0172 13.5656 11.8401 13.3428 11.623C13.0971 11.3772 10.9028 8.77724 10.4113 8.22295C9.76563 7.50295 9.00563 6.20581 8.13135 5.81152C9.00563 6.50295 9.65135 7.97152 10.5199 8.91438Z"
    fill="url(#paint16_linear)" />
  <path
    d="M16.7885 11.543C16.2914 11.1372 15.8228 10.5144 15.4857 9.98296C14.9314 9.10868 12.6685 6.28582 12.1142 5.48582C11.9485 5.24011 11.76 5.07439 11.5657 4.96582C11.8228 5.33725 11.9657 5.86296 12.5485 6.51439C13.48 7.56011 14.7028 9.44582 15.12 10.0972C15.5485 10.743 16.2228 12.1087 16.7885 11.543Z"
    fill="url(#paint17_linear)" />
  <path
    d="M19.8457 20.8343C19.4972 19.9886 18.9943 19.48 18.2629 19.96C16.2686 21.2743 13.9657 20.8286 11.0857 18.5029C8.51432 16.4229 7.1886 14.9429 5.93717 14.4058C5.64003 15.0858 6.87432 16.1829 7.16575 16.4743C7.63432 16.9429 9.5486 18.7086 10.1372 19.1201C11.1486 19.8229 13.1657 22.6229 15.8343 22.6229C17.32 22.6286 18.76 21.8801 19.8457 20.8343Z"
    fill="url(#paint18_linear)" />
  <path
    d="M21.1258 11.8118C21.1658 10.1375 22.3829 9.3375 22.3829 8.4975C22.3829 8.25179 22.2572 8.06893 22.0743 7.9375C22.2972 8.58893 21.7658 9.17179 20.9772 10.1546C20.1201 11.2232 19.9315 12.8804 20.5201 14.5375C21.1086 16.1946 20.3658 18.4804 19.1658 19.2061C17.9658 19.9318 16.3715 23.1089 11.8058 19.5146C11.8058 19.5146 11.8058 19.5146 11.8001 19.5146C11.5201 19.2575 11.2458 19.0289 10.9658 18.8518C9.04005 17.6575 7.9372 16.5832 7.10862 15.6804C6.94291 15.5032 6.50862 14.8232 5.98291 15.0461C6.24577 15.6404 6.94862 16.2689 7.16005 16.4804C7.62862 16.9489 9.54291 18.7146 10.1315 19.1261C10.2058 19.1775 10.2915 19.2461 10.3772 19.3204C10.4001 19.3375 10.4229 19.3604 10.4458 19.3832C10.4515 19.3889 10.4572 19.3946 10.4629 19.4004C10.4801 19.4118 10.4915 19.4289 10.5086 19.4404C10.5143 19.4461 10.5143 19.4461 10.5201 19.4518C11.1201 19.9946 11.9429 20.8975 12.9543 21.6004C13.0458 21.6632 13.1315 21.7204 13.2229 21.7832C13.2229 21.7832 13.2229 21.7832 13.2286 21.7832C13.3201 21.8404 13.4115 21.8975 13.5029 21.9489C14.2001 22.3489 14.9772 22.6289 15.8172 22.6289C18.9029 22.6289 21.7601 19.4118 21.7601 17.0461C21.7601 14.6804 21.0858 13.7889 21.1258 11.8118Z"
    fill="url(#paint19_radial)" />
  <defs>
    <linearGradient id="paint0_linear" x1="20.2762" y1="23.2392" x2="17.7334" y2="17.2818"
      gradientUnits="userSpaceOnUse">
      <stop offset="0.00132565" stop-color="#FFCB4B" />
      <stop offset="1" stop-color="#FFD748" />
    </linearGradient>
    <linearGradient id="paint1_linear" x1="20.7825" y1="19.0958" x2="15.4491" y2="12.7339"
      gradientUnits="userSpaceOnUse">
      <stop offset="0.00132565" stop-color="#FFCB4B" />
      <stop offset="1" stop-color="#FFD748" />
    </linearGradient>
    <linearGradient id="paint2_linear" x1="6.52692" y1="14.8598" x2="9.66977" y2="17.1741"
      gradientUnits="userSpaceOnUse">
      <stop offset="0.00132565" stop-color="#FFCB4B" />
      <stop offset="1" stop-color="#FFD748" />
    </linearGradient>
    <linearGradient id="paint3_linear" x1="5.38252" y1="8.73466" x2="10.8968" y2="14.5061"
      gradientUnits="userSpaceOnUse">
      <stop offset="0.00132565" stop-color="#FFCB4B" />
      <stop offset="1" stop-color="#FFD748" />
    </linearGradient>
    <linearGradient id="paint4_linear" x1="9.61582" y1="12.1619" x2="7.793" y2="13.879" gradientUnits="userSpaceOnUse">
      <stop stop-color="#FFBC47" stop-opacity="0" />
      <stop offset="1" stop-color="#FFA754" />
    </linearGradient>
    <linearGradient id="paint5_linear" x1="11.3386" y1="6.01145" x2="14.5386" y2="11.04" gradientUnits="userSpaceOnUse">
      <stop offset="0.00132565" stop-color="#FFCB4B" />
      <stop offset="1" stop-color="#FFD748" />
    </linearGradient>
    <linearGradient id="paint6_linear" x1="8.03526" y1="6.84744" x2="12.3781" y2="12.7141"
      gradientUnits="userSpaceOnUse">
      <stop offset="0.00132565" stop-color="#FFCB4B" />
      <stop offset="1" stop-color="#FFD748" />
    </linearGradient>
    <linearGradient id="paint7_linear" x1="13.2004" y1="7.55538" x2="10.4575" y2="10.0316"
      gradientUnits="userSpaceOnUse">
      <stop stop-color="#FFBC47" stop-opacity="0" />
      <stop offset="1" stop-color="#FFA754" />
    </linearGradient>
    <linearGradient id="paint8_linear" x1="10.6774" y1="9.31894" x2="6.90595" y2="12.0761"
      gradientUnits="userSpaceOnUse">
      <stop stop-color="#FFBC47" stop-opacity="0" />
      <stop offset="1" stop-color="#FFA754" />
    </linearGradient>
    <linearGradient id="paint9_linear" x1="13.4869" y1="13.1621" x2="9.71554" y2="15.9193"
      gradientUnits="userSpaceOnUse">
      <stop stop-color="#FFBC47" stop-opacity="0" />
      <stop offset="1" stop-color="#FFA754" />
    </linearGradient>
    <radialGradient id="paint10_radial" cx="0" cy="0" r="1" gradientUnits="userSpaceOnUse"
      gradientTransform="translate(18.435 8.68573) scale(4.52756)">
      <stop stop-color="#FFBC47" stop-opacity="0" />
      <stop offset="1" stop-color="#FFA754" />
    </radialGradient>
    <linearGradient id="paint11_linear" x1="13.7022" y1="7.06899" x2="11.3594" y2="9.24041"
      gradientUnits="userSpaceOnUse">
      <stop offset="0.3118" stop-color="#FFBC47" stop-opacity="0" />
      <stop offset="1" stop-color="#FF8900" />
    </linearGradient>
    <linearGradient id="paint12_linear" x1="11.9081" y1="8.24609" x2="8.82242" y2="11.027"
      gradientUnits="userSpaceOnUse">
      <stop offset="0.3118" stop-color="#FFBC47" stop-opacity="0" />
      <stop offset="1" stop-color="#FF8900" />
    </linearGradient>
    <linearGradient id="paint13_linear" x1="10.8654" y1="11.2536" x2="7.05589" y2="14.4536"
      gradientUnits="userSpaceOnUse">
      <stop offset="0.3118" stop-color="#FFBC47" stop-opacity="0" />
      <stop offset="1" stop-color="#FF8900" />
    </linearGradient>
    <linearGradient id="paint14_linear" x1="6.70878" y1="13.5785" x2="11.1373" y2="17.1785"
      gradientUnits="userSpaceOnUse">
      <stop stop-color="#FFBC47" stop-opacity="0" />
      <stop offset="1" stop-color="#FFBC47" />
    </linearGradient>
    <linearGradient id="paint15_linear" x1="7.5563" y1="9.1159" x2="11.0134" y2="14.373" gradientUnits="userSpaceOnUse">
      <stop stop-color="#FFBC47" stop-opacity="0" />
      <stop offset="1" stop-color="#FFBC47" />
    </linearGradient>
    <linearGradient id="paint16_linear" x1="10.2642" y1="9.49145" x2="11.2356" y2="8.7486"
      gradientUnits="userSpaceOnUse">
      <stop stop-color="#FFBC47" stop-opacity="0" />
      <stop offset="1" stop-color="#FFA754" />
    </linearGradient>
    <linearGradient id="paint17_linear" x1="15.0579" y1="12.4263" x2="13.7627" y2="6.25492"
      gradientUnits="userSpaceOnUse">
      <stop stop-color="#FFBC47" stop-opacity="0" />
      <stop offset="1" stop-color="#FFBC47" />
    </linearGradient>
    <linearGradient id="paint18_linear" x1="12.1012" y1="18.3493" x2="10.1584" y2="20.135"
      gradientUnits="userSpaceOnUse">
      <stop offset="0.3118" stop-color="#FFBC47" stop-opacity="0" />
      <stop offset="1" stop-color="#FF8900" />
    </linearGradient>
    <radialGradient id="paint19_radial" cx="0" cy="0" r="1" gradientUnits="userSpaceOnUse"
      gradientTransform="translate(13.3874 12.4487) rotate(48.1414) scale(13.1233 11.9132)">
      <stop offset="0.6134" stop-color="#FFBC47" stop-opacity="0" />
      <stop offset="1" stop-color="#FF8900" />
    </radialGradient>
  </defs>
</svg>